<?xml version="1.0" encoding="utf-8"?>
<!-- Generator: Adobe Illustrator 26.3.1, SVG Export Plug-In . SVG Version: 6.00 Build 0)  -->
<svg version="1.1" id="Vrstva_1" xmlns="http://www.w3.org/2000/svg" xmlns:xlink="http://www.w3.org/1999/xlink" x="0px" y="0px"
	 viewBox="0 0 195.9 95" style="enable-background:new 0 0 195.9 95;" xml:space="preserve">
<style type="text/css">
	.st0{clip-path:url(#SVGID_00000004514521729545339680000000412548270822376101_);}
	.st1{fill:#E2001A;}
	.st2{fill:#005091;}
	.st3{clip-path:url(#SVGID_00000041257406437280381340000009065214724897932732_);}
	.st4{clip-path:url(#SVGID_00000078735488438809759030000016282281057726232711_);}
	.st5{clip-path:url(#SVGID_00000140709748579670814090000007571870973918730666_);}
</style>
<g id="Vrstva_2_00000124850529982466157260000001841054694759646652_">
	<g id="Vrstva_1-2">
		<g>
			<defs>
				<rect id="SVGID_1_" y="0" width="195.9" height="95"/>
			</defs>
			<clipPath id="SVGID_00000096742591699818745760000007750515318648931715_">
				<use xlink:href="#SVGID_1_"  style="overflow:visible;"/>
			</clipPath>
			<g style="clip-path:url(#SVGID_00000096742591699818745760000007750515318648931715_);">
				<path class="st1" d="M102.4,18.1h-6.9L86.7,6.2h8.5l4,6.8l4-6.8h8.3L102.4,18.1z M112,32.8c-4.7-3.6-7.8-5.1-11.3-5.1
					c-6.6,0-10.5,6.1-10.5,16.3c0,6.1,1,10,3.3,13c1.8,2.3,4.6,3.7,7.5,3.8c3.3,0,6.4-1.3,11-4.8v8.6c-4.5,1.8-9.3,2.6-14.2,2.5
					C81.8,67.1,74,60,74,43.8c0-7.9,1.9-13,6.3-17.2c4.7-4.2,10.3-6,18.9-6c4.4-0.1,8.7,0.7,12.7,2.3V32.8z"/>
				<path class="st2" d="M133.7,50.5h3.1c5.9,0,9.1-0.8,12.4-3.2c3.5-2.5,5.2-6.2,5.2-11.8c0-5.3-1.7-9.1-5.1-11.5
					c-2.8-2-5.7-2.7-10.9-2.7h-20.6c0.4,0.7,0.6,1.5,0.5,2.3v41.1c0,0.8-0.1,1.6-0.5,2.2h16.5c-0.4-0.7-0.6-1.5-0.6-2.2L133.7,50.5z
					 M133.7,43.7V27.9h1.3c2.8,0,3.9,2.1,3.9,7.8c0,6.2-0.9,8-4,8H133.7z"/>
				<path class="st2" d="M174.7,50.5h3.1c5.9,0,9.1-0.8,12.4-3.2c3.5-2.5,5.2-6.2,5.2-11.8c0-5.3-1.7-9.1-5.1-11.5
					c-2.8-2-5.7-2.7-10.9-2.7h-20.6c0.4,0.7,0.6,1.5,0.5,2.3v41.1c0,0.8-0.1,1.6-0.5,2.2h16.5c-0.4-0.7-0.6-1.5-0.6-2.2V50.5z
					 M174.7,43.7V27.9h1.3c2.8,0,3.9,2.1,3.9,7.8c0,6.2-0.9,8-4,8H174.7z"/>
				<path class="st2" d="M57.8,0C53.5,1.4,47.4,6.2,41,14.2c6.9,4.6,11.2,12.3,11.3,20.6c0,14.2-12.6,25.8-28.2,25.8
					c-2.1,0-4.1-0.2-6.1-0.6l-1.3,7.1h44.9C60,34.3,63.3,20.5,86.3,3.2L90.4,0H57.8z"/>
				<path class="st1" d="M24.1,13.3C10.8,13.3,0,23,0,34.9s10.8,21.7,24.1,21.7s24.1-9.7,24.1-21.6S37.4,13.3,24.1,13.3"/>
			</g>
		</g>
		<rect x="0.8" y="74.3" class="st1" width="195.2" height="3"/>
		<polygon points="7.6,84.4 5,92.1 2.5,84.4 0.8,84.4 4.4,94.9 5.7,94.9 9.3,84.4 		"/>
		<rect x="10.8" y="84.4" width="1.6" height="10.4"/>
		<polygon points="15.4,84.4 15.4,94.9 22.4,94.9 22.4,93.5 17,93.5 17,90.3 21.6,90.3 21.6,88.9 17,88.9 17,85.9 22.4,85.9 
			22.4,84.4 		"/>
		<polygon points="31.2,84.4 31.2,91.8 26.2,84.4 24.7,84.4 24.7,94.9 26.3,94.9 26.3,87.6 31.4,94.9 32.9,94.9 32.9,84.4 		"/>
		<polygon points="42.3,84.4 42.3,91.8 37.3,84.4 35.8,84.4 35.8,94.9 37.4,94.9 37.4,87.6 42.5,94.9 44,94.9 44,84.4 		"/>
		<path d="M50.3,86.8l1.7,4.6h-3.4L50.3,86.8z M49.6,84.4l-4,10.4h1.8l0.8-2.1h4.3l0.8,2.1h1.8l-4-10.4H49.6z"/>
		<rect x="60.2" y="84.4" width="1.7" height="10.4"/>
		<polygon points="71.3,84.4 71.3,91.8 66.3,84.4 64.8,84.4 64.8,94.9 66.4,94.9 66.4,87.6 71.5,94.9 73,94.9 73,84.4 		"/>
		<g>
			<defs>
				<rect id="SVGID_00000013899096955390681200000011670987091263548314_" y="0" width="195.9" height="95"/>
			</defs>
			<clipPath id="SVGID_00000124849983310301576500000017449463439000169639_">
				<use xlink:href="#SVGID_00000013899096955390681200000011670987091263548314_"  style="overflow:visible;"/>
			</clipPath>
			<g style="clip-path:url(#SVGID_00000124849983310301576500000017449463439000169639_);">
				<path d="M78.8,95c-1.4,0.1-2.8-0.4-3.9-1.4l1.1-1c0.8,0.7,1.8,1.1,2.8,1c1.4,0,2.2-0.6,2.2-1.6c0-0.4-0.1-0.8-0.4-1.1
					c-0.3-0.3-0.8-0.4-1.2-0.4l-1.3-0.2c-0.8-0.1-1.5-0.4-2.1-0.8c-0.6-0.5-0.8-1.2-0.8-2c0-1.8,1.4-3.1,3.7-3.1
					c1.2-0.1,2.5,0.4,3.4,1.2l-1.1,1c-0.7-0.6-1.5-0.9-2.4-0.8c-1.3,0-2,0.7-2,1.6c0,0.4,0.1,0.7,0.4,1c0.4,0.3,0.8,0.4,1.2,0.5
					l1.2,0.2c0.7,0.1,1.4,0.3,2,0.8c0.6,0.5,0.9,1.3,0.9,2.1C82.7,93.9,81,95.1,78.8,95"/>
				<path d="M88.7,95c-2,0.1-3.8-1.4-3.9-3.4c0-0.1,0-0.2,0-0.3v-6.9h1.7v6.9c-0.1,1.2,0.9,2.3,2.1,2.4c1.2,0.1,2.3-0.9,2.4-2.1
					c0-0.1,0-0.2,0-0.3v-6.9h1.7v6.9c0,2-1.7,3.6-3.7,3.6C88.9,95,88.8,95,88.7,95"/>
				<path d="M101.4,94.9l-2.3-4.4H97v4.4h-1.6V84.4h4.2c2.1,0,3.4,1.3,3.4,3c0,1.3-0.9,2.5-2.2,2.8l2.5,4.6L101.4,94.9z M99.5,85.9
					H97v3.3h2.5c0.9,0.1,1.7-0.5,1.9-1.4c0.1-0.9-0.5-1.7-1.4-1.9C99.8,85.9,99.6,85.9,99.5,85.9"/>
			</g>
		</g>
		<path d="M108.8,86.8l1.7,4.6h-3.4L108.8,86.8z M108.1,84.4l-4,10.4h1.8l0.8-2.1h4.3l0.8,2.1h1.8l-4-10.4H108.1z"/>
		<polygon points="121.6,84.4 121.6,91.8 116.6,84.4 115.1,84.4 115.1,94.9 116.7,94.9 116.7,87.6 121.8,94.9 123.3,94.9 
			123.3,84.4 		"/>
		<g>
			<defs>
				<rect id="SVGID_00000147220597757962222500000004554832577489588914_" y="0" width="195.9" height="95"/>
			</defs>
			<clipPath id="SVGID_00000115489967785347836410000017132747332812705726_">
				<use xlink:href="#SVGID_00000147220597757962222500000004554832577489588914_"  style="overflow:visible;"/>
			</clipPath>
			<g style="clip-path:url(#SVGID_00000115489967785347836410000017132747332812705726_);">
				<path d="M129.7,95c-1.1,0-2.1-0.4-2.9-1.1c-1.1-1-1-2.2-1-4.2s0-3.2,1-4.2c0.8-0.7,1.8-1.1,2.9-1.1c1.1,0,2.2,0.4,3.1,1.2
					l-1.1,1.1c-0.5-0.6-1.2-0.9-1.9-0.9c-0.6,0-1.2,0.2-1.6,0.6c-0.5,0.6-0.6,1.2-0.6,3.3s0.1,2.7,0.6,3.3c0.4,0.4,1,0.6,1.6,0.6
					c0.7,0,1.5-0.3,1.9-0.9l1.1,1.1C131.9,94.6,130.8,95,129.7,95"/>
			</g>
		</g>
		<polygon points="135,84.4 135,94.9 142,94.9 142,93.5 136.7,93.5 136.7,90.3 141.2,90.3 141.2,88.9 136.7,88.9 136.7,85.9 
			142,85.9 142,84.4 		"/>
		<g>
			<defs>
				<rect id="SVGID_00000085960982364581884240000005242836654186978224_" y="0" width="195.9" height="95"/>
			</defs>
			<clipPath id="SVGID_00000012470730482588515000000009258762324301296008_">
				<use xlink:href="#SVGID_00000085960982364581884240000005242836654186978224_"  style="overflow:visible;"/>
			</clipPath>
			<g style="clip-path:url(#SVGID_00000012470730482588515000000009258762324301296008_);">
				<path d="M154.5,93.8c-0.8,0.8-1.9,1.2-3,1.2c-1.1,0-2.1-0.4-2.9-1.1c-1.1-1-1.1-2.2-1.1-4.2s0-3.2,1.1-4.2
					c0.8-0.7,1.8-1.1,2.9-1.1c1.3-0.1,2.5,0.5,3.3,1.4l-1.1,1.1c-0.5-0.6-1.3-1-2.2-1c-0.6,0-1.2,0.2-1.6,0.7
					c-0.5,0.6-0.6,1.1-0.6,3.2s0.1,2.7,0.6,3.3c1,0.9,2.5,0.8,3.4-0.1c0.4-0.5,0.6-1.1,0.5-1.7v-0.6h-2.3v-1.3h3.9v1.6
					C155.6,91.9,155.2,93,154.5,93.8"/>
				<path d="M163.9,94.9l-2.3-4.4h-2.1v4.4h-1.6V84.4h4.2c1.7-0.2,3.2,1,3.4,2.7c0,0.1,0,0.2,0,0.3c0,1.3-0.9,2.5-2.2,2.8l2.5,4.6
					L163.9,94.9z M162,85.9h-2.4v3.3h2.5c1.1,0,1.9-0.6,1.9-1.6c0-0.9-0.7-1.7-1.6-1.7C162.2,85.9,162.1,85.9,162,85.9"/>
				<path d="M174.4,93.9c-1.6,1.5-4.1,1.5-5.7,0c-1.1-1-1.1-2.2-1.1-4.2s0-3.2,1.1-4.2c1.6-1.5,4.1-1.5,5.7,0c1.1,1,1,2.2,1,4.2
					S175.4,92.9,174.4,93.9 M173.1,86.4c-0.4-0.4-1-0.7-1.6-0.7c-0.6,0-1.2,0.2-1.6,0.7c-0.5,0.6-0.6,1.1-0.6,3.2s0.1,2.7,0.6,3.2
					c0.4,0.4,1,0.7,1.6,0.7c0.6,0,1.2-0.2,1.6-0.7c0.5-0.6,0.6-1.2,0.6-3.2S173.6,87,173.1,86.4"/>
				<path d="M181.6,95c-2,0.1-3.8-1.4-3.9-3.4c0-0.1,0-0.2,0-0.3v-6.9h1.7v6.9c0,1.2,1,2.3,2.3,2.3c1.2,0,2.3-1,2.3-2.3v-6.9h1.6
					v6.9c0,2-1.7,3.6-3.7,3.6C181.8,95,181.7,95,181.6,95"/>
				<path d="M192.4,90.8H190v4.1h-1.7V84.4h4.1c1.8-0.2,3.3,1.1,3.5,2.8c0.2,1.8-1.1,3.3-2.8,3.5C192.9,90.8,192.7,90.8,192.4,90.8
					 M192.3,85.9H190v3.5h2.4c1,0.1,1.8-0.6,1.9-1.6c0.1-1-0.6-1.8-1.6-1.9C192.6,85.9,192.5,85.9,192.3,85.9"/>
			</g>
		</g>
	</g>
</g>
</svg>
